PathFileType	4	(X/Y/Z)	5_coords_data.trc
DataRate	CameraRate	NumFrames	NumMarkers	Units	OrigDataRate	OrigDataStartFrame	OrigNumFrames
30.0	30.0	5	21	m	30.0	30	68
Frame#	Time	THUMB_TIP	THUMB_IP	THUMB_MCP	THUMB_CMC	INDEX_TIP	INDEX_DIP	INDEX_PIP	INDEX_MCP	MIDDLE_TIP	MIDDLE_DIP	MIDDLE_PIP	MIDDLE_MCP	RING_TIP	RING_DIP	RING_PIP	RING_MCP	PINKY_TIP	PINKY_DIP	PINKY_PIP	PINKY_MCP	WRIST
X1	Y1	Z1	X2	Y2	Z2	X3	Y3	Z3	X4	Y4	Z4	X5	Y5	Z5	X6	Y6	Z6	X7	Y7	Z7	X8	Y8	Z8	X9	Y9	Z9	X10	Y10	Z10	X11	Y11	Z11	X12	Y12	Z12	X13	Y13	Z13	X14	Y14	Z14	X15	Y15	Z15	X16	Y16	Z16	X17	Y17	Z17	X18	Y18	Z18	X19	Y19	Z19	X20	Y20	Z20	X21	Y21	Z21
29	0.9666666666666667	-0.026004999160766602	-0.1250800018310547	1.032510009765625	-0.00919911003112793	-0.11234500122070312	1.04472998046875	-0.003933259963989258	-0.09630979919433594	1.0688900146484375	-0.01937389945983887	-0.07327510070800781	1.078300048828125	-0.010139399528503418	-0.19523100280761718	1.04447998046875	-0.012598199844360352	-0.17786099243164064	1.05777001953125	-0.017838499069213868	-0.16195500183105468	1.0716300048828125	-0.02638479995727539	-0.1323300018310547	1.0907900390625	-0.018115400314331054	-0.08993599700927735	1.053280029296875	-0.02030179977416992	-0.11049500274658203	1.0525400390625	-0.022328800201416015	-0.1359340057373047	1.05602001953125	-0.045808399200439456	-0.13023300170898439	1.0894599609375	-0.01883650016784668	-0.09409559631347657	1.0440400390625	-0.0279591007232666	-0.1119260025024414	1.0431500244140626	-0.04036920166015625	-0.13375700378417968	1.0460799560546874	-0.057520999908447265	-0.12215399932861327	1.075800048828125	-0.08013880157470703	-0.16767300415039063	1.0336099853515626	-0.07454630279541016	-0.14936900329589844	1.0423699951171874	-0.06929560089111328	-0.13427900695800782	1.050260009765625	-0.06071920013427735	-0.11170700073242187	1.059949951171875	-0.04488880157470703	-0.0575099983215332	1.099280029296875
30	1.0	-0.026488500595092772	-0.12430000305175781	1.032010009765625	-0.009664549827575683	-0.11151000213623047	1.0442099609375	-0.004126719951629639	-0.0955416030883789	1.068530029296875	-0.019637399673461915	-0.07259140014648438	1.0778299560546876	-0.009827630043029785	-0.19436700439453125	1.0437099609375	-0.012369199752807617	-0.1770030059814453	1.057030029296875	-0.017747299194335937	-0.16102400207519532	1.0708199462890624	-0.026532699584960937	-0.13158099365234374	1.0903499755859376	-0.018579900741577147	-0.08923580169677735	1.0526800537109375	-0.0206742000579834	-0.10973300170898438	1.052260009765625	-0.022557899475097655	-0.1352760009765625	1.05522998046875	-0.045928901672363284	-0.12982499694824218	1.08902001953125	-0.019462499618530273	-0.09330699920654296	1.043530029296875	-0.028449899673461915	-0.1112519989013672	1.0426600341796874	-0.040647998809814456	-0.13316700744628907	1.0456300048828124	-0.057760101318359375	-0.12159300231933594	1.0756199951171874	-0.08036199951171875	-0.16703599548339843	1.0331500244140626	-0.07481510162353516	-0.14875599670410156	1.041949951171875	-0.06955120086669922	-0.13362300109863282	1.0497900390625	-0.06084469985961914	-0.11101699829101562	1.059219970703125	-0.0450010986328125	-0.05689189910888672	1.0985999755859375
31	1.0333333333333334	-0.02677910041809082	-0.12373799896240234	1.03147998046875	-0.010010899543762207	-0.11099299621582032	1.043530029296875	-0.004387989997863768	-0.09499919891357422	1.0679200439453125	-0.01996549987792969	-0.07213420104980468	1.0773199462890626	-0.009713339805603027	-0.19366099548339843	1.0431099853515624	-0.012365599632263184	-0.17632200622558594	1.05656005859375	-0.017847000122070314	-0.1604360046386719	1.07052001953125	-0.026747699737548827	-0.13102699279785157	1.0901800537109374	-0.018834499359130858	-0.08871240234375	1.051949951171875	-0.020912799835205078	-0.10929399871826172	1.051800048828125	-0.022735000610351563	-0.1347760009765625	1.0549200439453126	-0.04621599960327148	-0.1292550048828125	1.08852001953125	-0.019874200820922852	-0.09279730224609375	1.0430400390625	-0.028762399673461916	-0.11067900085449218	1.0420999755859375	-0.040945899963378905	-0.13266600036621093	1.04518994140625	-0.05793610000610352	-0.12101699829101563	1.07518994140625	-0.08067639923095703	-0.16643600463867186	1.032719970703125	-0.07510330200195313	-0.14817100524902344	1.041550048828125	-0.06987139892578124	-0.13303900146484374	1.04952001953125	-0.06132749938964844	-0.11048699951171875	1.059050048828125	-0.045252101898193356	-0.056337398529052736	1.0983399658203126
32	1.0666666666666667	-0.02708729934692383	-0.12345400238037109	1.031030029296875	-0.010227299690246583	-0.11065399932861328	1.0431800537109375	-0.0046776700019836425	-0.09472100067138672	1.0673499755859375	-0.02021809959411621	-0.07180480194091797	1.077030029296875	-0.00981993007659912	-0.19330499267578125	1.0426500244140624	-0.012470000267028809	-0.17598399353027344	1.0560899658203124	-0.017969900131225586	-0.16010299682617188	1.070050048828125	-0.02689189910888672	-0.13075799560546875	1.0896400146484375	-0.01919499969482422	-0.08831590270996094	1.052010009765625	-0.02119529914855957	-0.10909100341796875	1.0516199951171874	-0.022911199569702147	-0.13433900451660155	1.0544599609375	-0.0462677993774414	-0.12896499633789063	1.088239990234375	-0.02011870002746582	-0.09247440338134766	1.0426300048828125	-0.029058799743652344	-0.11034300231933594	1.041739990234375	-0.04121210098266601	-0.13229299926757812	1.0448399658203125	-0.058139999389648436	-0.12091999816894532	1.074800048828125	-0.08091780090332032	-0.16611000061035155	1.0322900390625	-0.07535179901123047	-0.14783099365234376	1.0412099609375	-0.07008470153808594	-0.13272799682617187	1.0490999755859376	-0.061557300567626955	-0.11015899658203125	1.0586700439453125	-0.04538719940185547	-0.056285999298095704	1.0978900146484376
33	1.1	-0.02740410041809082	-0.12340299987792969	1.03081005859375	-0.010594400405883789	-0.11054900360107422	1.042949951171875	-0.005013700008392334	-0.09461100006103515	1.0670899658203126	-0.02046389961242676	-0.0717406005859375	1.076760009765625	-0.009935040473937989	-0.19319400024414063	1.0424100341796876	-0.012598799705505372	-0.17587699890136718	1.0558299560546875	-0.01808919906616211	-0.16001800537109376	1.06981005859375	-0.027184200286865235	-0.13065499877929687	1.0897099609375	-0.019497499465942383	-0.08815950012207031	1.0516600341796876	-0.021510000228881835	-0.10891699981689452	1.051050048828125	-0.02317210006713867	-0.13434500122070311	1.0544599609375	-0.04647679901123047	-0.1290469970703125	1.088	-0.02041659927368164	-0.09241850280761718	1.0423499755859376	-0.029339099884033205	-0.1104020004272461	1.0416500244140625	-0.04140599822998047	-0.13222000122070313	1.044530029296875	-0.05823360061645508	-0.12083399963378906	1.074969970703125	-0.08109729766845702	-0.1660679931640625	1.03202001953125	-0.07555059814453124	-0.1478179931640625	1.040949951171875	-0.07033570098876953	-0.13268899536132814	1.0488199462890626	-0.06178969955444336	-0.11013800048828125	1.0585799560546876	-0.04565850067138672	-0.056044998168945315	1.0979000244140624
